<?xml version="1.0" encoding="UTF-8"?>
<!DOCTYPE svg PUBLIC "-//W3C//DTD SVG 1.1//EN" "http://www.w3.org/Graphics/SVG/1.1/DTD/svg11.dtd">
<!-- Creator: CorelDRAW 2020 (64-Bit) -->
<svg xmlns="http://www.w3.org/2000/svg" xml:space="preserve" width="8.5in" height="11in" version="1.1" style="shape-rendering:geometricPrecision; text-rendering:geometricPrecision; image-rendering:optimizeQuality; fill-rule:evenodd; clip-rule:evenodd"
viewBox="0 0 8500 11000"
 xmlns:xlink="http://www.w3.org/1999/xlink"
 xmlns:xodm="http://www.corel.com/coreldraw/odm/2003">
 <defs>
  <style type="text/css">
   <![CDATA[
    .fil0 {fill:#01361C}
   ]]>
  </style>
   <clipPath id="id0">
    <rect x="-21644.44" y="-4500" width="14222.22" height="21333.33"/>
   </clipPath>
 </defs>
 <g id="Layer_x0020_1">
  <metadata id="CorelCorpID_0Corel-Layer"/>
  <g style="clip-path:url(#id0)">
   <image x="-21644.44" y="-4500" width="14222.22" height="21333.33" xlink:href="logo-hyre_Images\logo-hyre_ImgID1.png"/>
  </g>
  <g id="_2910615695520">
   <path class="fil0" d="M3513.67 6034.13l0 1094.86c0,186.9 20.27,169.68 -37.48,170.33 -146.06,1.65 -294.19,-0.71 -440.55,-0.71 19.6,-40.86 7.71,-158.08 7.71,-215.89l0 -254.44c0,-36.04 -5.13,-33.24 -5.07,-65.88 0.4,-264.92 32.22,-418.29 264.78,-607.36 39.5,-32.12 159.67,-109.05 210.62,-120.92zm223.6 146.5l0 -15.42c79.67,0 159.36,-0.17 239.03,0.01 83.95,0.19 148.93,-7.72 239.01,-7.72 325.87,0 557.18,26.53 769.2,-202.3 41.74,-45.04 67.57,-91.39 96.99,-149.74 33.89,-67.23 50.89,-157.13 66.76,-179.97 0,54.86 -29.72,149.66 -48.74,190.29 -99.59,212.78 -267.69,338.48 -506.76,356.79l-362.03 8.06c-164.49,0 -328.97,0 -493.46,0zm454.91 -1017.76c36.8,9.83 185.02,161.1 441.35,221.73 117.7,27.84 157.68,3.83 190.89,32.7 -173.5,0 -312.45,-34.56 -439.24,-108.19 -19.99,-11.61 -50.35,-30.65 -70.81,-44.83 -34.59,-23.97 -100.95,-69.69 -122.19,-101.41zm0 0l-7.71 -7.71 7.71 7.71zm-7.71 -7.71l-7.71 -7.71 7.71 7.71zm-7.71 -7.71l-7.71 -7.71 7.71 7.71zm-23.13 -23.13l15.42 15.42c-25.24,-4.67 -10.75,9.81 -15.42,-15.42zm0 0l-15.42 -7.71 15.42 7.71zm1056.31 -15.43c-2.76,-14.59 9.71,-27.42 4.88,-4.88 -0.11,0.52 0.22,31.8 -4.88,4.88zm-1071.73 7.71l0 0zm539.72 -177.34l0 0zm-686.22 0l0 0zm0 0l-7.71 -7.71 7.71 7.71zm670.8 -23.13c16.59,11.53 10.15,1.13 15.42,23.13 -16.59,-11.53 -10.15,-1.13 -15.42,-23.13zm-693.93 -7.71c16.59,11.53 10.15,1.13 15.42,23.13 -16.59,-11.53 -10.16,-1.13 -15.42,-23.13zm678.5 -15.42c16.59,11.53 10.15,1.13 15.42,23.13 -16.59,-11.53 -10.15,-1.13 -15.42,-23.13zm-693.93 -7.71c16.59,11.53 10.15,1.13 15.42,23.13 -16.59,-11.53 -10.15,-1.13 -15.42,-23.13zm-15.42 -23.13c16.59,11.53 10.15,1.13 15.42,23.13 -16.59,-11.53 -10.15,-1.13 -15.42,-23.13zm2058.65 -655.38c0,86.78 -15.42,146.39 -15.42,292.99 0,364.1 16.37,1604.99 -19.66,1853.94 -13.71,94.73 -20.7,110.91 -41.97,189.33l-23.18 61.63c0.66,-29.72 10.69,-73.97 14.04,-101.62 20.43,-168.76 9.09,-1318.09 9.09,-1586.94 0,-90.43 -7.71,-152.91 -7.71,-239.02 -26.41,19.35 -15.06,42.35 -25.42,121.07 -8,60.75 -5.44,215.53 -5.43,287.57 0.02,59 -5.2,99.29 -7.75,146.46 -9.65,178.67 10.69,1097.55 -3.04,1192.06 -36.68,252.7 -101.87,400.7 -242.49,574.8 -97.67,120.91 -253.13,230.36 -404.69,273.82 -92.72,26.59 -159.43,25.72 -274.98,25.72 -400.93,0 -801.87,0 -1202.8,0l-1.85 -7.48c-11.9,-73.35 -5.86,-908.26 -5.86,-987.15l963.79 0c81.93,154.84 223.99,441.65 308.07,586.32 56.76,97.68 117.53,241.48 193.1,354.33 67.09,-5.58 149.57,-67.63 185.05,-77.1 -3.17,-38.01 -149.17,-297.98 -177.29,-354.72l-126.01 -236.38c-22.7,-45.92 -41.88,-75.71 -64.24,-120.81l-125.92 -236.46c84.33,-7.02 225.78,-150.17 278.78,-222.39 24.94,-33.98 43.15,-65.87 64.89,-104.74 10.74,-19.19 18.53,-38.13 27.32,-57.49 9.14,-20.12 16.13,-34.13 25.17,-59.65 16.89,-47.7 29.8,-78.93 41.8,-127.83 12.34,-50.33 23.74,-84.22 32.37,-137.25 7.19,-44.14 23.13,-99.65 23.13,-146.5 -62.43,33.04 -141.52,95.76 -216.28,138.4 -17.18,9.8 -32.61,14.85 -49.61,27.49 -21.94,16.3 -18.76,17.63 -26.61,42.78 -30.38,97.38 -35.36,156.98 -106.76,263.33 -40.77,60.73 -85.19,107.61 -147.63,145.37 -138.13,83.51 -302.09,61.13 -517.13,61.13 -195.33,0 -390.66,0 -585.98,0l0 -84.81c61.83,-1.38 772.58,-192.36 800.96,-201.38 62.93,-19.99 118.52,-41.61 180.47,-66.26l332.67 -168.5 227.92 -149.89c99.79,-69.99 143.67,-124.72 205.12,-172.68 24.29,-18.96 34.99,-40.79 58.94,-64.43 132.57,-130.88 271.38,-371.39 336.32,-542.65 22.85,-60.24 45.41,-120.76 62.75,-183.98 9.94,-36.26 17.17,-54.18 26.46,-96.9l20.2 -87.74c6.25,-17.33 1.85,-7.23 7.31,-15.83zm0 0l0 -38.55 7.71 0c0,5.71 0.56,17.19 -0.67,22.45 -3.48,14.9 -1.96,8.1 -7.04,16.09zm-2205.15 -107.94c0,-148.15 6.15,-125.35 30.84,-231.31 249.85,58.21 390.45,293.83 485.55,509.08 16.9,38.26 28.99,74.34 43.52,118.39 15.7,47.6 30.83,77.13 46.36,123.27 15.69,46.61 27.83,73.23 45.8,116.12 78.17,186.62 172.52,371.76 343.99,488.72 49.49,33.76 163.3,100.01 237.59,101.67 -14.62,19.96 -27.06,23.13 -92.52,23.13 -269.33,0 -409.15,-44.83 -609.06,-185.09 -38.56,-27.05 -126.84,-102.83 -154.26,-138.74 -36.72,-48.08 -55.67,-55.31 -94.91,-120.98 -78.48,-131.37 -104.8,-133.3 -179.41,-329.47 -51.68,-135.87 -103.49,-291.78 -103.49,-474.78zm2212.85 46.26c-2.76,-14.59 9.71,-27.42 4.88,-4.88 -0.11,0.52 0.22,31.79 -4.88,4.88zm-1357.01 747.9c-115.1,-77.07 -271.77,-645.96 -366.93,-789.61 -91.33,-137.86 -149.07,-177.31 -172.79,-212.72 96.55,25.78 214.24,242 254.56,323.72 21.76,44.12 35.13,91.93 53.86,138.9 18.29,45.87 31.86,93.27 50.72,142.04 19.94,51.58 31.72,89.87 52.77,139.99l127.82 257.69zm-539.72 -1002.33c-22,-5.27 -11.6,1.17 -23.13,-15.42 22,5.26 11.6,-1.17 23.13,15.42zm-169.63 971.5c-64.74,-47.43 -183.67,-342.72 -209.84,-445.54 -37.1,-145.82 -28.51,-143.56 -46.81,-284.73 -7.92,-61.09 -6.53,-194.15 11.45,-262.82l13.89 -32.38c0,99.22 -31.32,134.82 -9.83,295.11 7.6,56.69 -3.95,45.95 15.52,146.39 8.94,46.09 15.72,90.43 29.82,132.09 54.23,160.21 58.78,188.17 139.13,346.61 16.99,33.5 49.16,73.09 56.66,105.26zm146.5 -986.92l0 0zm562.85 -92.52c32.52,8.68 45.09,28.41 68.3,47.35l122.55 108.76c25.37,25.14 34.97,39.85 57.87,65.49l102.76 136.26c16.51,27.06 27.6,46.22 43.28,72.37 14.39,23.99 34.08,56.75 43.75,79.62 12.93,30.59 24.39,49.17 36.41,79.24 55.54,139.01 103.19,334.15 111.1,482.59 4.56,85.46 -7.75,157.12 -7.75,231.35l-7.71 0c0,-174.8 -1.31,-287 -31.35,-431.27 -24.16,-116.06 -69.44,-256.25 -117.63,-352.7 -27.04,-54.12 -52.51,-98.53 -83.81,-147.5 -139.75,-218.65 -321.33,-347 -337.78,-371.57zm0 0c-22,-5.27 -11.6,1.17 -23.13,-15.42 22,5.27 11.6,-1.17 23.13,15.42zm-23.13 -15.42c-22,-5.27 -11.6,1.17 -23.13,-15.42 22,5.27 11.6,-1.17 23.13,15.42zm-23.13 -15.42l0 0zm-23.13 -15.42l2.3 2.3c-0.15,-0.15 -3.07,-1.53 -2.3,-2.3zm-639.96 -15.42c35.46,-8.26 75.03,-28.54 115.36,-38.87l123.09 -15.24c154.43,4.52 324.37,84.95 441.2,176.33 87.14,68.15 165.94,149.33 230.14,240.19 150.6,213.15 293.01,523.17 293.01,794.14 0,110.81 8.02,161.57 -15.42,262.15 -153.13,0 -302.78,-145.81 -382.11,-265.56 -94.46,-142.57 -142.96,-276.53 -208.3,-447.07 -16.88,-44.05 -28,-73.79 -45.13,-116.79 -17.31,-43.44 -34.52,-75.09 -49.6,-112.32 -56.36,-139.16 -157.35,-284.21 -276.28,-371.38 -32.34,-23.7 -66.85,-41.85 -102.47,-59.45 -48.24,-23.84 -66.72,-23.43 -107.5,-38.99l-16 -7.14zm38.55 -200.47l-15.04 8.87 15.04 -8.87zm23.13 -7.71c-8.51,7.88 13.49,7.71 -23.13,7.71 8.51,-7.88 -13.49,-7.71 23.13,-7.71zm0 0c6.03,-5.24 3.43,-3.9 13.66,-9.47l135.52 -49.53c156.18,-46.51 334.18,-99.03 481.96,-157.99 202.35,-80.73 371.52,-185.66 540.74,-315.1l113.91 -94.27c273.91,-253.35 437.63,-535.46 555.76,-886.06l16.63 -37.34c7.41,89.01 49.44,312.51 61.69,424.06 7.69,70.01 16.96,142.52 23.34,215.68l18.46 228.27c10.36,69.21 12.12,403.87 12.17,473.58 0.26,442.75 -116.15,1014.08 -324.18,1372.09 -96.08,165.36 -129.04,212.36 -263.58,345.53 -16.34,16.17 -50.02,43.96 -67.62,55.75 0,-57.55 10,-102.25 7.96,-169.88 -4.59,-152.31 -40.32,-330.49 -82.29,-472.86 -127.81,-433.58 -586.41,-936.97 -1074.59,-938 -72.83,-0.16 -102.52,15.54 -169.55,15.54zm100.24 -208.18l2.3 2.3c-0.15,-0.15 -3.07,-1.53 -2.3,-2.3zm30.84 -7.71l-15.04 8.87 15.04 -8.87zm-539.72 269.86l74.47 18.06c2.29,0.88 8.85,3.57 10.9,4.52 15.77,7.31 6.88,2.72 14.86,8.27l-246.46 -31.11c-259.69,-17.51 -377.5,-15.15 -640.22,-15.15l0 1734.81 208.18 0c0,-192.15 1.8,-349.93 32.93,-529.92 35.9,-207.57 153.18,-501.73 279.87,-676.2 39.78,-54.77 157.06,-233.05 234.63,-251.12 -9.03,-13 -1.11,-15.42 -23.13,-15.42l-239.02 0c-40.46,0 -50.98,24.7 -68.44,47.22 -60.96,78.64 -147.71,181.51 -188.32,282 -11.9,29.45 -6.8,40.38 -28.52,56.29 0.9,-40.48 7.42,-22.3 3.53,-65.21 -1.45,-16.01 -1.21,-14.44 -1.44,-30.7 -0.02,-1.73 0.15,-3.95 0.11,-5.62l-2.19 -361.08c202.24,0 285.13,5.98 477.35,23.82 36.75,3.41 77.52,14.73 116.34,14.73 -0.98,43.92 -23.22,76.96 -28.91,117.58 -33.85,241.6 17.24,493.81 99.4,698.61 126.66,315.74 348.24,602.66 640.31,778.38 36.55,21.99 63.14,38.63 103.82,58.09 36.08,17.27 70.65,31.18 108.3,45.91 20.17,7.89 39.7,14.09 57.29,19.81l60.69 24.13 -214.88 70.4c-68.4,23.2 -154.87,43.26 -230.76,62.23 -150.95,37.74 -309.24,78.01 -464.17,114.1 0,-106.19 -12.65,-713.16 7.71,-755.61l-254.44 0c26.5,113.73 23.15,14.59 23.13,185.05l0 632.24c-134.19,31.26 -303,142.7 -404.07,243.6l-18.35 20.2c-13.48,14.61 -36.37,43.87 -47.91,52.32 0,-77.16 0.14,-154.33 -0.18,-231.49 -0.52,-127.41 28.39,-176.36 31.02,-208 -29.31,16.47 -208.59,7.71 -254.44,7.71l0 1588.32 -100.23 0 -15.42 -3677.81c-0.7,31.41 -31.37,118.4 -30.83,269.87 0.2,57.94 -7.43,90.5 -8.02,138.47 -0.63,51.17 0.31,103.22 0.31,154.51l0 3114.96 -131.07 0 0 -3076.41c0,-175.09 22.96,-293.59 58.51,-434.95 30.91,-122.91 55.59,-167.26 98.87,-271.22 8.01,-19.24 13.02,-25.46 21.01,-40.67l228.17 -334.69c275.72,-286.43 546.73,-390.49 950.46,-414.36 54.02,-3.2 75.94,7.68 123.07,8.08 93.04,0.8 790.28,66.12 902.39,92.24l-75.57 47.8c-121.64,72.91 -304.2,155.61 -436.61,211.05 -33.59,14.07 -59.91,23.95 -91.8,39.28l-269.96 115.56c-72.12,34.73 -444.33,231.52 -452.24,326.5zm539.72 -269.86c1.54,-1.07 4.11,-4.31 4.88,-2.82l317.84 -113.94c35.22,-14.27 73.12,-25.96 112.43,-41.77 244.75,-98.45 460.02,-203.4 670.79,-362.39 88.1,-66.45 160.74,-129.55 237.72,-209.47 24.15,-25.06 117.1,-150.87 136.7,-164 -7.96,29.82 -38.17,63.8 -57.27,89.22 -139.93,186.19 -350.33,377.75 -554.35,486.54 -226.13,120.58 -382.44,183.78 -630.65,256.04 -48,13.97 -200.16,61.74 -238.11,62.59zm1488.08 -902.11l-7.71 7.71 7.71 -7.71zm7.71 -15.42l-7.71 15.42 7.71 -15.42zm0 0l0 0zm-547.43 300.7c-229.97,0 -697.77,-107.94 -1102.57,-107.94 -303.92,0 -511.6,37.27 -750.59,159.22 -83.34,42.53 -174.78,104.44 -245.83,162.82l-154.38 146.32c-139.86,138.24 -273.57,371.15 -346.04,571.49 -80.67,223 -106.91,470.94 -106.91,710.39l0 2690.89c0,155.6 7.71,284.3 7.71,439.49l909.81 0c23.78,0 17.39,3.84 30.84,3.81l192.76 -3.81 0 416.35c0,28.01 -9.15,27.04 -15.42,53.97l246.73 0c-0.72,-32.07 -5.42,-24.36 -5.07,-50.23l-2.65 -396.96c0,-43.47 58.49,-9.52 142.99,-18.13l311.92 2.7c49.87,0 10.28,-7.65 100.33,-0.61 18.44,1.44 43.33,1.23 61.93,0.35l301.97 -2.61c10.15,0.12 28.03,-1.78 43.11,-2.01 22.2,-0.35 49.85,3.09 86.44,3.72l399.87 -15.23c81.65,-14.05 124.69,-32.41 196.68,-57.76 45.96,-16.19 120.45,-59.28 160.54,-86.19 387.84,-260.28 578.48,-692.8 576.72,-1165.8l-0.02 -1996.99c0,-334.91 7.71,-654.43 7.71,-994.63 0,-150.13 -23.56,-553 -39.93,-700.26 -8.19,-73.65 -21.54,-150.92 -29.45,-224.99 -20.58,-192.72 -82.71,-425.92 -135.46,-612.44 -14.45,-51.1 -39.98,-157.71 -72.73,-181.71 0,32.66 -36.21,162.73 -46.21,200.52 -45.98,173.82 -128.23,391.32 -220.28,543.04 -49.57,81.69 -115.7,187.93 -182.72,256.76 -16.74,17.19 -16.74,21.11 -31.1,38.29 -33.93,40.6 -239.08,218.17 -290.72,218.17z"/>
   <path class="fil0" d="M3067.76 7784.37c28.19,50.26 76.88,41.47 75.91,208.07 -1.36,233.65 -6.55,246.2 -218.56,352.21l-142.54 73.24c-21.46,14.15 -24.3,20.69 -47.64,34.97 -22.06,-5.49 -13.37,-137.93 -13.24,-182.74 0.21,-70.84 -4.9,-330.05 9.28,-381.41 8.35,-30.21 15.63,-45.23 34.21,-66.32l57.83 -44.87c-89.71,-1.22 -319.63,-14.17 -394.2,1.26 38.68,15.84 64.92,54.96 76.25,97.39 22.76,85.25 11.29,734.27 12.31,871.99 0.41,55.42 5.27,121.19 -4.89,170.71 -8.75,42.68 -30,96.17 -71.52,111.5 72.46,5 296.62,11.19 359.97,-1.26 -99.96,-8.34 -77.19,-266.12 -78.3,-334.96 -1.21,-74.39 -5.85,-114.85 40.35,-164.31 47.54,-50.91 38.65,-52.61 126.11,-90.79 170.54,-74.43 443.38,-63.2 437.79,124.22 -1.01,33.78 -19.76,64.67 -36,78.18 -33.26,27.67 -49.44,12.03 -82.59,4.94 6.96,-19.54 45.14,-52.04 38.43,-106.72 -5.78,-47.05 -51.52,-63.42 -88.09,-53.66 -14.7,94.28 20.46,355.94 -10.85,450.98 -12.7,38.55 -53.98,69.01 -64.99,87.7l366.51 -0.95c-52.19,-63.42 -90.96,15.27 -93.15,-260.15 -0.97,-122.47 -11.35,-817.74 7.67,-889.6 19.87,-75.09 68.93,-81.06 85.3,-94.55 -49.42,-9.17 -355.41,-13.63 -381.33,4.92z"/>
   <path class="fil0" d="M4022.55 8685.73l-250 -512.58c-13.35,-31.89 -35.43,-50.68 -19.87,-78.43l-15.42 -26.82 -280.11 -0.35c37.65,16.38 103.98,104.75 133.02,157.33 100.22,181.45 193.95,394.94 283.96,571.91 15.74,30.94 27.48,64 44.63,94.64 25.73,45.96 33.91,50.72 21.13,111.82 -12.65,60.44 -42.21,164.29 -61.96,222.69 -23.99,70.93 -53.88,151.62 -88.41,198.82 -37.87,51.78 -135.59,91.48 -186.39,9.61 -6.46,-16.84 57.65,-173.21 -96.54,-121.41 -101.54,34.11 -87.77,228.53 74.35,246.08 63.07,6.83 120.13,-5.6 169.01,-43.45 20.99,-16.25 4.18,-1.9 23.01,-22.24 7.59,-8.19 4.17,-5.23 11.29,-11.9 102.39,-95.99 192.13,-424.84 226.82,-574.16l192.68 -733.03c35.5,-99.82 65.52,-73.7 66.7,-107.37l-186.58 1.04c42.15,34.31 64.68,63.7 58.17,140.9l-104.33 454.15c-11.14,24.76 0.91,7.75 -15.17,22.75z"/>
   <path class="fil0" d="M5263.9 8532.27l-23.13 0c0,-107.28 -6.73,-361.67 111.59,-428.15 51.18,-28.76 106.92,-15.38 144.25,18.1 106.12,95.15 59.06,410.05 -232.71,410.05zm-15.42 72.11l0 -16.67c-6.36,-10.99 -8.06,-2.76 0,-14.46 67.64,-1.6 126.57,-5.43 189.12,-22.6 66.92,-18.37 89.7,-33.04 141.31,-66.65 25.63,-16.69 35.22,-33.14 53.93,-53.2 59.5,-63.82 77.71,-156.92 45.41,-244 -12.2,-32.88 -72.23,-91.11 -102.19,-104.94 -55.59,-25.67 -113.36,-43.67 -181.41,-37.54 -82.09,7.39 -167.43,44.73 -218.98,99.2 -10.48,11.07 -14.03,17.46 -25.37,28.39 -26.68,25.72 -1.37,-7.45 -25.72,27.69 -138.47,199.8 -77.12,562 69.72,656.52l34.28 27.42c1.72,1.44 6.82,5.45 8.61,6.82l54.11 29.77c61.33,20.87 121.96,26.87 188.2,25.55 29.99,-0.6 55.64,-8.62 80.69,-17.43 78.43,-27.6 130.14,-85.95 151.58,-173.26 -28.26,46.86 -66.67,97.09 -113.73,119.85 -191.3,92.48 -331.86,-48.93 -364.05,-273.18 11.24,-5.6 -1.67,-8.5 14.48,2.71z"/>
   <path class="fil0" d="M4558.27 8208.44l-11.43 2.85c-1.2,-1.9 -2.42,-7.2 -2.8,-6.15l-7.52 -27.22c-0.81,-5.25 -2.54,-32.61 -2.67,-38.78 -0.67,-29.71 3.9,-57.61 5.61,-87.48 -10.27,7.28 -18.34,13.16 -23.98,17.43 -2.28,1.72 -12.73,9.8 -13.06,10.09 -46.26,40.31 19.57,-2.78 -64.09,52.43 -22.81,15.05 -33.05,21.61 -60.44,32.91 -10.43,4.3 -20.53,7.68 -31.42,12.63l-32.62 18.96c83.16,23.44 57.52,266.73 57.96,374.71 0.3,73.38 10.13,235.46 -23.96,301.06 -20.04,38.56 -28.13,30.57 -51.46,60.81l322.23 -6.86c-71.85,-53.83 -65.67,-127.51 -70.98,-208.23 -12.67,-192.28 -14.61,-372.32 90.49,-532.54 0.97,-1.48 2.2,-3.35 3.13,-4.87 29.6,-48.26 0.83,-16.99 53.17,-63.46 19.24,-17.09 79,-44.01 106.98,-42.41 94.3,5.41 22.35,163.62 123.39,165.3 177.53,2.96 34.35,-301.8 -212.07,-166.21 -75.66,41.63 -87.14,73.67 -118.76,104.98 -15.74,15.58 -22.72,24.39 -29.44,49.73 -15.49,-15.29 -6.01,5.83 -6.25,-19.69z"/>
   <path class="fil0" d="M4747.31 9102.83c-18.83,10.58 -14.26,7.71 -46.26,7.71l0 38.55 46.26 0 0 192.76c0,34.83 -33.29,21.82 -46.26,53.97l169.63 0c-20.88,-78.22 -38.55,80.23 -38.55,-246.73l115.65 0c0,70.6 11.36,184.16 -14.13,217.19 -23.36,30.27 -12.67,-2.93 -24.43,29.55l169.63 0c-12.98,-35.85 -46.26,-15.02 -46.26,-69.39l0 -177.34 77.1 0c-11.55,-54.54 19.91,-51.45 -76.88,-37.23 -0.26,-121.43 -7.6,-73.07 15.2,-170.94l38.55 0c5.57,23.93 9.85,22.33 15.42,46.26 77.33,-6.43 52.2,-92.52 -7.71,-92.52 -168.61,0 -144.02,164.44 -154.2,208.18 -53.56,0 -62.81,6.7 -107.94,7.71 0,-73.53 -12.65,-153.9 46.26,-169.63 28.17,18.87 14.72,21.09 38.55,38.55 63.04,-14.69 55.75,-84.81 -38.55,-84.81 -39.46,0 -87.01,37.34 -103.09,66.54 -23.5,42.7 -27.99,77.65 -27.99,141.63z"/>
   <path class="fil0" d="M3067.76 7784.37c25.93,-18.55 331.91,-14.09 381.33,-4.92 -16.37,13.48 -65.43,19.46 -85.3,94.55 -19.02,71.86 -8.64,767.13 -7.67,889.6 2.19,275.42 40.96,196.72 93.15,260.15l-366.51 0.95c11.01,-18.69 52.29,-49.16 64.99,-87.7 31.31,-95.04 -3.85,-356.7 10.85,-450.98 36.57,-9.76 82.32,6.61 88.09,53.66 6.71,54.68 -31.47,87.19 -38.43,106.72 33.15,7.09 49.33,22.73 82.59,-4.94 16.24,-13.51 34.99,-44.39 36,-78.18 5.59,-187.42 -267.25,-198.65 -437.79,-124.22 -87.46,38.18 -78.57,39.88 -126.11,90.79 -46.2,49.46 -41.56,89.92 -40.35,164.31 1.12,68.83 -21.66,326.61 78.3,334.96 -63.35,12.46 -287.5,6.26 -359.97,1.26 41.52,-15.33 62.77,-68.82 71.52,-111.5 10.16,-49.53 5.3,-115.3 4.89,-170.71 -1.02,-137.72 10.44,-786.74 -12.31,-871.99 -11.33,-42.43 -37.57,-81.56 -76.25,-97.39 74.57,-15.43 304.5,-2.48 394.2,-1.26l-57.83 44.87c-18.58,21.09 -25.86,36.11 -34.21,66.32 -14.19,51.36 -9.07,310.56 -9.28,381.41 -0.13,44.81 -8.82,177.25 13.24,182.74 0,-99.15 -12.36,-505.54 17.06,-582.04 33.14,-86.16 86.17,-52.94 90.88,-109.59 -82.89,0 -399.97,-14.95 -447.2,7.71 45.43,67.85 108.26,4.19 107.94,262.14l-0 747.9c0.01,272.31 -49.14,182.05 -107.94,269.86l439.48 0c-9.11,-34.11 -24.45,-20.37 -52.47,-47.76 -59.87,-58.54 -47.76,-176.2 -47.76,-260.65 -0,-129.6 -12.73,-201.97 133.45,-275.2 110.08,-55.15 395.14,-114.66 435.86,61.19 14.4,62.19 1.06,113.77 -75.85,113.77 10.35,-38.77 49.16,-42.52 26.72,-119.13 -15.07,-51.44 -49.25,-50.49 -111.53,-50.49 0,78.97 10.9,404.78 -12.96,465.07 -14.9,37.65 -40.52,71.94 -79.56,82.36l0 23.13 424.06 0c-4.95,-59.53 -48.45,-15.77 -87.37,-97.68 -34.94,-73.55 -20.5,-776.26 -20.58,-904.66 -0.18,-312.32 92.84,-188.68 100.24,-277.57l-424.07 0c6.63,24.83 0.38,17.2 24.43,23.13z"/>
   <path class="fil0" d="M4022.55 8685.73c16.07,-15 4.02,2.01 15.17,-22.75l104.33 -454.15c6.5,-77.2 -16.02,-106.59 -58.17,-140.9l186.58 -1.04c-1.19,33.67 -31.21,7.55 -66.7,107.37l-192.68 733.03c-34.69,149.31 -124.43,478.17 -226.82,574.16 -7.11,6.67 -3.7,3.72 -11.29,11.9 -18.83,20.33 -2.02,5.99 -23.01,22.24 -48.88,37.85 -105.94,50.28 -169.01,43.45 -162.11,-17.55 -175.89,-211.97 -74.35,-246.08 154.19,-51.8 90.08,104.57 96.54,121.41 50.8,81.87 148.51,42.17 186.39,-9.61 34.53,-47.2 64.43,-127.9 88.41,-198.82 19.75,-58.4 49.31,-162.25 61.96,-222.69 12.79,-61.09 4.6,-65.86 -21.13,-111.82 -17.15,-30.64 -28.89,-63.7 -44.63,-94.64 -90.01,-176.97 -183.74,-390.45 -283.96,-571.91 -29.04,-52.58 -95.37,-140.95 -133.02,-157.33l280.11 0.35 15.42 26.82c19.58,-31.24 2.33,-3.15 20.7,-19.86 21.02,-19.13 6.82,9.85 17.85,-20.63l-362.38 0c11.78,44.14 73.5,32.41 149.19,182.36l280.06 560.37c20.3,43.81 32.38,73.63 54.01,115.72 31.89,62.07 23.58,46.43 4.18,114.72 -38.75,136.37 -96.95,433.78 -233.46,438.23 -93.17,3.04 -57.78,-77.26 -55.17,-87.34 14.98,-57.85 -25.05,-85.21 -60.79,-90.21 -55.04,-7.7 -98.95,18.39 -117.8,50.86 -109.52,188.65 145.43,313.93 316.02,184.94 164.72,-124.54 291.01,-717.2 357.7,-983.89 20.98,-83.91 77.13,-323.77 110.29,-390.88 11.72,-23.72 15.14,-33.99 34.17,-50.64 25.09,-21.96 31.54,-10.33 40.59,-44.22l-246.73 0c13.45,50.37 61.75,40.23 65.38,132.94 3.9,99.49 -103.93,410.51 -103.93,498.56z"/>
   <path class="fil0" d="M4546.85 8211.28c0,-12.99 -3.72,-10.56 7.71,-10.56l3.72 7.71c0.24,25.52 -9.24,4.41 6.25,19.69 6.73,-25.34 13.71,-34.15 29.44,-49.73 31.62,-31.31 43.1,-63.35 118.76,-104.98 246.42,-135.59 389.6,169.17 212.07,166.21 -101.04,-1.69 -29.09,-159.89 -123.39,-165.3 -27.98,-1.61 -87.74,25.32 -106.98,42.41 -52.33,46.46 -23.56,15.2 -53.17,63.46 -0.93,1.53 -2.16,3.4 -3.13,4.87 -105.09,160.22 -103.15,340.27 -90.49,532.54 5.31,80.72 -0.87,154.4 70.98,208.23l-322.23 6.86c23.33,-30.24 31.42,-22.25 51.46,-60.81 34.09,-65.6 24.26,-227.68 23.96,-301.06 -0.44,-107.98 25.2,-351.27 -57.96,-374.71l32.62 -18.96c10.89,-4.94 20.98,-8.33 31.42,-12.63 27.39,-11.3 37.63,-17.85 60.44,-32.91 83.67,-55.21 17.83,-12.12 64.09,-52.43 0.33,-0.28 10.78,-8.37 13.06,-10.09 5.65,-4.27 13.72,-10.15 23.98,-17.43 -1.72,29.88 -6.29,57.78 -5.61,87.48 0.14,6.17 1.87,33.53 2.67,38.78l7.52 27.22c0.38,-1.06 1.59,4.24 2.8,6.15zm7.71 -10.56l0 -169.63c-50.28,4.19 -51.76,34.78 -126.54,89.35 -35,25.54 -108.01,54.83 -151.03,64.86 27.48,37.5 77.54,6.53 77.38,146.22 -0.09,77.19 -0.28,154.38 -0.28,231.58 0,143.75 23.24,335.41 -92.52,362.38l0 23.13 408.64 0c-6.7,-18.54 0.19,-5.87 -13.29,-17.55 -15.81,-13.7 -38.62,-15.02 -62.88,-52.78 -47.04,-73.22 -37.93,-347.02 -31.39,-430.46 10.7,-136.64 98.55,-339.46 220.39,-358.46 68.22,-10.65 52.67,61.23 69.72,106.15 14.01,36.92 39.2,66.54 94.06,59.08 70.66,-9.6 110.42,-106.67 18.58,-187.15 -54.99,-48.19 -180.98,-48.08 -248.6,-12.9 -118.95,61.88 -123.21,117.57 -162.24,146.17z"/>
   <path class="fil0" d="M5248.48 8604.37c-16.16,-11.22 -3.24,-8.31 -14.48,-2.71 32.19,224.24 172.75,365.66 364.05,273.18 47.06,-22.75 85.47,-72.99 113.73,-119.85 -21.44,87.3 -73.15,145.66 -151.58,173.26 -25.04,8.81 -50.7,16.83 -80.69,17.43 -66.24,1.33 -126.87,-4.67 -188.2,-25.55l-54.11 -29.77c-1.79,-1.37 -6.89,-5.38 -8.61,-6.82l-34.28 -27.42c-146.84,-94.52 -208.19,-456.72 -69.72,-656.52 24.36,-35.15 -0.95,-1.98 25.72,-27.69 11.35,-10.93 14.89,-17.32 25.37,-28.39 51.54,-54.47 136.89,-91.81 218.98,-99.2 68.04,-6.13 125.81,11.88 181.41,37.54 29.96,13.83 89.99,72.06 102.19,104.94 32.3,87.08 14.09,180.17 -45.41,244 -18.7,20.06 -28.3,36.51 -53.93,53.2 -51.62,33.61 -74.4,48.28 -141.31,66.65 -62.56,17.17 -121.48,21 -189.12,22.6 -8.06,11.7 -6.36,3.48 0,14.46 145.13,-10.67 228.69,-9.97 349.27,-99.39 140.29,-104.03 168.27,-330.11 -20.12,-423.97 -237.14,-118.16 -593.91,53.4 -544.43,498.17 12.53,112.61 62.01,236.17 144.72,302.48 44.19,35.42 83.52,63.3 142.9,80.69 120.57,35.32 250.01,23.23 342.18,-68.28 31.59,-31.36 85.64,-97.91 55.81,-160.08 -47.11,17.05 5.17,45.2 -103.23,128.08 -149.65,114.43 -344.22,-6.76 -367.1,-241.02z"/>
   <path class="fil0" d="M4539.13 9133.67c103.66,0 88.7,284.74 -22.3,231.35 -58.64,-28.2 -64.01,-231.35 22.3,-231.35zm-154.2 107.94c0,236.63 308.41,193.56 308.41,23.13 0,-51.9 -2.76,-87.41 -44.06,-125.57 -106.91,-98.78 -264.35,-12.87 -264.35,102.44z"/>
   <path class="fil0" d="M4076.52 9249.33c0,54.37 -3.88,86.2 36.13,125.78 92.92,91.93 241.47,28.2 249.15,-64.1 -41.43,4.53 -46.07,61.68 -115.66,61.68 -103.26,0 -102.32,-231.31 -7.71,-231.31 43.12,0 49.9,67.33 53.97,84.81 57.11,0 61.68,-3.2 61.68,-46.26 0,-122.49 -277.57,-100.16 -277.57,69.39z"/>
   <path class="fil0" d="M5510.63 9203.06c3.64,-43.73 22.65,-77.1 69.39,-77.1 30.81,0 43.73,38.96 46.26,69.39 -38.89,3.24 -64.9,7.71 -115.65,7.71zm124.94 152.22c-78.65,43.16 -165.09,17.68 -189.69,-69.48 -16.93,-59.99 2.95,-109.32 39.91,-147.31 18.3,-18.8 38.02,-26.24 65.54,-21.88 -89.31,36.46 -88.75,289.11 84.23,238.68zm-209.75 -129.09c0,56.97 -4.1,84.13 36.17,125.74 75.91,78.42 195.17,41.51 225.61,-19.03 12.11,-24.09 12.83,-11.35 0.37,-37.31 -4.83,3.23 -104.3,107.36 -161.02,14.52 -14.17,-23.2 -16.31,-39.61 -16.31,-76.2l192.76 0c0,-39.04 -8.93,-79.9 -28.48,-102.6 -79.38,-92.13 -249.09,-30.02 -249.09,94.89z"/>
   <path class="fil0" d="M5203.07 9203.06c12.7,-30.48 11.25,-65.86 56.24,-74.32 42.56,-8.01 57.65,32.99 58.57,74.32l-16.93 0c-13.01,12.68 1.03,5.52 -22.32,9.89 -2.23,0.42 -26.15,1.21 -30.13,1.33 -16.38,0.5 -53.26,-0.58 -54.73,16.44 -1.83,21.29 -22.78,45.02 26.29,108.03 4.37,5.61 9.32,25.21 52.03,29.15 22.7,2.09 49.74,-5.96 71.74,-12.43l-10.63 7.16c-1.52,0.89 -13.76,7.92 -16.02,8.91 -60.38,26.38 -145.28,4 -175.02,-68.95 -30.54,-74.91 12.85,-180.2 100.39,-187.36 -33.15,22.26 -50.72,35.37 -51.07,87.83 14.25,12 0.75,5.13 11.59,0zm-85.67 30.84l0 46.26c0,51.93 63.73,115.66 115.66,115.66 49.58,0 153.78,5.19 161.91,-92.53 -53.19,14.2 -34.13,46.26 -107.94,46.26 -55.1,0 -80.44,-55.47 -84.81,-107.94 39.09,0 42.01,-7.71 84.81,-7.71l107.94 0c0,-87.89 -25.26,-138.79 -138.78,-138.79 -76.54,0 -138.79,63.33 -138.79,138.79z"/>
   <path class="fil0" d="M5300.95 9203.06l-97.88 0c-10.83,5.13 2.66,12 -11.59,0 0.34,-52.46 17.92,-65.57 51.07,-87.83 -87.54,7.15 -130.93,112.45 -100.39,187.36 29.74,72.94 114.65,95.33 175.02,68.95 2.26,-0.98 14.5,-8.01 16.02,-8.91l10.63 -7.16c-22,6.46 -49.04,14.52 -71.74,12.43 -42.71,-3.94 -47.66,-23.54 -52.03,-29.15 -49.07,-63 -28.13,-86.74 -26.29,-108.03 1.47,-17.02 38.35,-15.94 54.73,-16.44 3.98,-0.12 27.9,-0.92 30.13,-1.33 23.35,-4.37 9.31,2.8 22.32,-9.89z"/>
   <path class="fil0" d="M5635.57 9355.29c-172.98,50.43 -173.54,-202.22 -84.23,-238.68 -27.52,-4.36 -47.25,3.08 -65.54,21.88 -36.96,37.99 -56.84,87.33 -39.91,147.31 24.59,87.17 111.03,112.64 189.69,69.48z"/>
  </g>
 </g>
</svg>
